<svg xmlns="http://www.w3.org/2000/svg" width="32" height="32" viewBox="0 0 32 32" fill="none">
<g clip-path="url(#clip0_2728_10309)">
<path d="M15.9993 2.66669C8.63935 2.66669 2.66602 8.64002 2.66602 16C2.66602 23.36 8.63935 29.3334 15.9993 29.3334C23.3594 29.3334 29.3327 23.36 29.3327 16C29.3327 8.64002 23.3594 2.66669 15.9993 2.66669ZM12.386 21.72L7.59935 16.9334C7.07935 16.4134 7.07935 15.5734 7.59935 15.0534C8.11935 14.5334 8.95935 14.5334 9.47935 15.0534L13.3327 18.8934L22.506 9.72002C23.026 9.20002 23.866 9.20002 24.386 9.72002C24.906 10.24 24.906 11.08 24.386 11.6L14.266 21.72C13.7593 22.24 12.906 22.24 12.386 21.72Z" fill="#006636"/>
</g>
<defs>
<clipPath id="clip0_2728_10309">
<rect width="32" height="32" fill="white"/>
</clipPath>
</defs>
</svg>