<svg xmlns="http://www.w3.org/2000/svg" width="32" height="32" viewBox="0 0 32 32" fill="none">
<path d="M5.95951 28H26.0395C28.0928 28 29.3728 25.7733 28.3462 24L18.3062 6.6533C17.2795 4.87997 14.7195 4.87997 13.6928 6.6533L3.65284 24C2.62618 25.7733 3.90618 28 5.95951 28ZM15.9995 18.6666C15.2662 18.6666 14.6662 18.0666 14.6662 17.3333V14.6666C14.6662 13.9333 15.2662 13.3333 15.9995 13.3333C16.7328 13.3333 17.3328 13.9333 17.3328 14.6666V17.3333C17.3328 18.0666 16.7328 18.6666 15.9995 18.6666ZM17.3328 24H14.6662V21.3333H17.3328V24Z" fill="#871A1A"/>
</svg>